<?xml version="1.0" encoding="utf-8"?>
<!-- Generator: Adobe Illustrator 25.0.1, SVG Export Plug-In . SVG Version: 6.00 Build 0)  -->
<svg version="1.2" baseProfile="tiny" id="Ebene_1" xmlns="http://www.w3.org/2000/svg" xmlns:xlink="http://www.w3.org/1999/xlink"
	 x="0px" y="0px" viewBox="0 0 1477.9 1659.9" overflow="visible" xml:space="preserve">
<g id="Ebene_2_1_">
	<g id="Capa_1">
		<path fill="#FFFB1F" d="M1155.5,1506.2c7.6,14.8,11.6,31.2,11.6,47.8c0,58.3-47.7,106-105.9,106H420.4c-58.3,0-106-47.7-106-106
			c0-16.6,4-33,11.7-47.8C134.7,1372,9.2,1140.7,9.2,850.2c0-18.9,0.2-37.6,0.6-56.2c0.5-24.7,1.6-49.3,3-73.4
			C15,683,18.4,646.3,23,610.5c2.9-21.9,6.3-43.3,10.2-64.4c4.5-24.9,9.8-49.3,16-73c5.3-21,11.5-41.5,18.3-61.5
			C151.3,165,342.2,0,740.8,0c381.6,0,580.1,170.5,669.7,424c6.4,18.1,12.2,36.6,17.5,55.6c6.5,23,12.2,46.7,17.1,70.9
			c4.1,20.1,7.8,40.5,10.8,61.2c5.3,34.7,9.1,70.3,11.8,106.6c1.8,23.9,3.1,47.9,3.7,72.4v0.1c0.6,19.5,1,39.4,1,59.3
			C1472.3,1140.7,1346.8,1372,1155.5,1506.2z"/>
		<path fill="#E6E209" d="M557.6,1471.3c-80.5-28.3-131.3-85.4-165.1-149.4c-116.9-221.3-153-555.1-108.4-798.4
			c29.8-162,101.6-289.1,227-397.3c68.4-59,183.1-87,264.7-125.4c-11.5-0.4-23.1-0.8-35-0.8C135.3,0,9.2,380.6,9.2,850.2
			c0,290.5,125.5,521.8,316.9,656c-7.6,14.8-11.6,31.2-11.6,47.8c0,58.3,47.7,106,106,106h334.4c-44.4-31.3-275.6-34.1-296.6-84.5
			C420.4,1484.6,592.6,1483.6,557.6,1471.3z"/>
		<path fill="#F0C3AB" d="M1250.1,864c-55.5,75.7-949.8,71.9-1008.7,0s-27.7-442.7,55.5-518.4s842.3-79.5,897.8,0
			S1305.5,788.3,1250.1,864z"/>
		<path fill="#F2D3C2" d="M1232,834.2c-50.4,68.9-864,65.5-917.7,0S289.1,431,364.8,362.1s766.3-72.4,816.8,0
			S1282.4,765.3,1232,834.2z"/>
		<path fill="#D9AF2E" d="M838.8,87c0.8-12.6,1.4-26,7.9-36.6c10.2-16.5,35.1-20.5,49.6-7.9c9.2,8,13.7,20.8,14,33.2
			s-3.1,24.7-7.5,36.3c-19,50.5-62.9,103.3-114.3,119.2c6.8-21.7,26.2-40.8,34.5-63.6C832.3,141.9,836.9,114.4,838.8,87z"/>
		<path fill="#D9AF2E" d="M960.2,106c5.4-12.2,10.8-25.2,21-33.4c16-12.8,41.7-8,51.3,9.5c6.1,11.1,5.8,25.3,1.6,37.7
			s-12,23.3-20.5,33.3c-36.9,43.3-98.9,80.2-154.8,78c14.5-19.1,40.4-31.2,56.7-50.8C934,158,948.5,132.4,960.2,106z"/>
		<path fill="#D9AF2E" d="M1079.9,148.9c5.8-8.7,11.7-18.1,21-22.9c14.4-7.6,34.7-0.1,40.3,15c3.6,9.6,1.7,20.6-3.2,29.7
			s-12.5,16.4-20.5,23c-35,28.4-89.6,47.8-134.6,37.8c14-12.8,36.4-18.3,52-31.2C1052.5,185.6,1067.3,167.8,1079.9,148.9z"/>
		<path fill="#D9AF2E" d="M666.1,87c-0.8-12.6-1.4-26-7.9-36.6c-10.2-16.5-35.1-20.5-49.6-7.9c-9.2,8-13.7,20.8-14,33.2
			s3.1,24.7,7.5,36.3c19,50.5,62.9,103.3,114.3,119.2c-6.7-21.7-26.2-40.8-34.5-63.6C672.5,141.9,667.9,114.4,666.1,87z"/>
		<path fill="#D9AF2E" d="M544.7,106c-5.4-12.2-10.7-25.2-21-33.4c-16-12.8-41.7-8-51.3,9.5c-6.1,11.1-5.8,25.3-1.6,37.7
			s12,23.3,20.5,33.3c36.9,43.3,98.9,80.2,154.8,78c-14.5-19.1-40.4-31.2-56.7-50.8C570.9,158,556.4,132.4,544.7,106z"/>
		<path fill="#D9AF2E" d="M424.9,148.9c-5.8-8.7-11.7-18.1-21-22.9c-14.5-7.6-34.7-0.1-40.4,15c-3.6,9.6-1.7,20.6,3.2,29.7
			s12.5,16.4,20.5,23c35,28.3,89.6,47.9,134.5,37.8c-14-12.8-36.4-18.3-52-31.2C452.3,185.6,437.6,167.8,424.9,148.9z"/>
		<path fill="#D9AF2E" d="M805.2,1207.4c7-108.4-22.5-180.3,22.8-188.4c52.2-9.4,94.4,68.4,85.7,156.3
			c-14.8,150.6-146.1,268-146.1,268S797.3,1330.8,805.2,1207.4z"/>
		<path fill="#D9AF2E" d="M976.1,1198c0.5-100.4-33.3-164.6,11.5-175.3c51.6-12.3,98.2,56.4,94.8,138
			c-5.8,139.9-129.7,257.3-129.7,257.3S975.5,1312.3,976.1,1198z"/>
		<path fill="#D9AF2E" d="M1157.4,1142.6c-17.4-86.7-58.6-135.9-21-153.4c43.3-20.2,96.7,30.4,108.2,101.5
			c19.8,121.8-68.7,246.2-68.7,246.2S1177.2,1241.3,1157.4,1142.6z"/>
		<path fill="#D9AF2E" d="M1301.3,1046.2c-29.6-55-66.4-80.5-46-99c23.5-21.2,68.5,3.2,91,48.7c38.5,78,8.2,176.9,8.2,176.9
			S1335,1108.8,1301.3,1046.2z"/>
		<path fill="#D9AF2E" d="M692.5,1207.4c-7-108.4,22.5-180.3-22.8-188.4c-52.2-9.4-94.4,68.4-85.7,156.3
			c14.9,150.6,146.1,268,146.1,268S700.5,1330.8,692.5,1207.4z"/>
		<path fill="#D9AF2E" d="M521.7,1198c-0.5-100.4,33.3-164.6-11.5-175.3c-51.6-12.3-98.2,56.4-94.9,138
			c5.8,139.8,129.7,257.2,129.7,257.2S522.2,1312.3,521.7,1198z"/>
		<path fill="#D9AF2E" d="M340.4,1142.6c17.4-86.7,58.6-135.9,21-153.4c-43.3-20.2-96.7,30.4-108.2,101.5
			c-19.8,121.8,68.7,246.2,68.7,246.2S320.5,1241.3,340.4,1142.6z"/>
		<path fill="#D9AF2E" d="M198.5,1063.9c29.6-55,66.4-80.5,46.1-98.9c-23.5-21.2-68.5,3.2-91,48.7c-38.5,78-8.1,176.9-8.1,176.9
			S164.8,1126.5,198.5,1063.9z"/>
		<path fill="#D9AF2E" d="M1455.9,611.8c-92.5,7.3-171.4-32.2-171.4-32.2s80.4-1.7,160.6-29C1455.9,560.7,1461.6,595.4,1455.9,611.8
			z"/>
		<path fill="#D9AF2E" d="M1428,479.7c-71.1,31.8-139.6,30.7-139.6,30.7s64-32.5,122.1-86.3C1421.3,427.6,1432,460.4,1428,479.7z"/>
		<path fill="#D9AF2E" d="M1471.4,790.7c-107.2-37.9-165.7-141-165.7-141s74.6,47.9,162,68.6
			C1479.3,743.6,1481.8,776.4,1471.4,790.7z"/>
		<path fill="#D9AF2E" d="M206.3,579.6c0,0-85.9,43-183.4,31c-13.8-12.1-13.2-55,10.2-64.4C117.4,577.8,206.3,579.6,206.3,579.6z"/>
		<path fill="#D9AF2E" d="M202.4,510.4c0,0-77.5,1.2-153.2-37.3c-8.5-17.1,0-51.8,18.3-61.5C128.4,472.8,202.4,510.4,202.4,510.4z"
			/>
		<path fill="#D9AF2E" d="M185.1,649.8c0,0-62,109.3-175.3,144.2c-13.2-14.5-13.9-57.4,3-73.4C104.5,701.6,185.1,649.8,185.1,649.8z
			"/>
		<circle fill="#FFFFFF" cx="512.4" cy="579.4" r="100.1"/>
		<circle fill="#FFFFFF" cx="983" cy="579.4" r="100.1"/>
		<path fill="#3D2216" d="M678.9,669.6c-1-2.7-1.5-5.5-1.5-8.4c0.1-5.8,1.9-11.5,5.1-16.3c3.1-4.8,7.7-8.4,13.1-10.3
			c2.4-0.8,5-1.2,7.5-1.2c6,0.1,11.8,2,16.7,5.4c4.9,3.3,8.4,8.1,10.2,13.8c0.8,2.8,3.8,4.4,6.6,3.6c2.8-0.8,4.4-3.8,3.6-6.6
			c-2.4-7.9-7.5-14.7-14.3-19.4c-6.7-4.7-14.6-7.3-22.8-7.4c-3.7,0-7.3,0.6-10.8,1.7c-7.6,2.6-14.1,7.7-18.6,14.4
			c-4.5,6.6-6.9,14.3-7,22.3c0,4.1,0.7,8.2,2.1,12.1c1,2.8,4.1,4.2,6.9,3.2C678.6,675.4,680,672.3,678.9,669.6L678.9,669.6z"/>
		<path fill="#3D2216" d="M837.7,673.3c1.4-3.9,2.1-7.9,2.1-12.1c-0.1-8-2.5-15.7-7-22.3c-4.4-6.7-11-11.8-18.6-14.4
			c-3.5-1.2-7.2-1.7-10.8-1.7c-8.2,0.1-16.1,2.7-22.8,7.4c-6.8,4.7-11.8,11.5-14.3,19.4c-0.8,2.8,0.8,5.8,3.6,6.6s5.8-0.8,6.6-3.6
			c1.8-5.6,5.4-10.4,10.2-13.8c4.9-3.5,10.7-5.4,16.7-5.4c2.6,0,5.1,0.4,7.5,1.2c5.4,1.9,10,5.5,13.1,10.3
			c3.3,4.8,5.1,10.5,5.1,16.3c0,2.9-0.5,5.7-1.5,8.4c-1,2.8,0.4,5.8,3.1,6.9C833.6,677.5,836.7,676.1,837.7,673.3L837.7,673.3z"/>
		<path fill="#D5423C" d="M615.1,770.8c39.4-21.8,90-33.2,140.7-33.1c49.8,0,99.5,10.9,138.4,33.1c2.6,1.4,5.8,0.5,7.2-2.1
			c1.4-2.5,0.5-5.7-2-7.1c-41-23.3-92.4-34.5-143.7-34.5c-52.2,0-104.5,11.6-145.9,34.5c-2.6,1.3-3.7,4.5-2.4,7.1s4.5,3.7,7.1,2.4
			C614.8,770.9,615,770.8,615.1,770.8L615.1,770.8z"/>
		<path fill="#3D2216" d="M1054.9,673.6c9.1-6.3,18.7-11.9,28.6-16.8c10.2-5.1,20.9-9.2,31.9-12.2c5.8-1.5,11.7-2.6,17.6-3.4
			c3-0.4,6.1-0.6,9.2-0.8c3.5-0.1,6.9,0,10.3,0.4c13.8,1.5,27.1,6,39,13.2c11.9,7.4,23,17.5,30.7,30.7c7.9,13.2,12.2,28.3,12.5,43.7
			c0.7,14.7-1.8,29.4-7.4,43.1c-5.9,14.2-15,26.7-26.6,36.7c-11.1,9.5-23.9,16.7-37.9,21.2c-13.3,4.3-27.3,6.3-41.2,5.8
			c-13.6-0.6-27-3.4-39.7-8.4c-5.9-2.3-11.4-4.8-16.7-7.5c-5.2-2.8-10.2-5.6-15-8.5c-19-11.6-35.3-23.8-52.5-34.3
			c-17.6-11.2-36.6-20.2-56.4-26.7c21.2-7.1,45-6.9,67.4-2.8s43.6,12,62.8,18.3c8.9,3.1,17.9,5.6,27,7.7c4.2,0.8,8.2,1.3,11.9,1.7
			c3.6,0.3,7.2,0.3,10.7,0c14.6-1.3,28.7-6.7,38-14.6s14.6-17.8,16.4-32.2c0.7-5.9,0-11.8-2-17.3c-2.4-6.2-6.2-11.8-11-16.4
			c-5.4-5.2-11.7-9.4-18.6-12.2c-1.7-0.7-3.5-1.4-5.3-1.8c-2.2-0.6-4.4-1.1-6.6-1.6c-4.6-1.1-9.3-1.9-14.1-2.4
			c-10.1-1.2-20.4-1.8-30.6-1.8C1077,674,1066.1,674.2,1054.9,673.6z"/>
		<path fill="#3D2216" d="M956.1,411.5c9.4-4.6,18.4-9.7,27.5-14.8s18.4-9.9,27.9-14.6c19-9.1,38.9-17.4,60.9-22.1
			c11.4-2.6,23-3.7,34.7-3.2c12.5,0.3,24.8,2.9,36.3,7.6c12.3,4.9,23.4,12.4,32.5,21.9c9.5,9.9,17.5,23.2,19.6,39.8
			c1,8.4,0.3,17-2.2,25.1c-1.3,4-3,7.9-5,11.6c-2,3.6-4.4,7.1-7,10.3c-5.8,7.2-13.3,12.8-21.8,16.3c-7.3,3-15.1,4.9-23.1,5.4
			c-14.4,0.9-26.6-1.2-38-3.9c-5.7-1.3-11.1-3-16.4-4.8s-10.4-3.6-15.4-5.7c-10-4-19.4-8.4-28.5-12.6s-17.6-8.4-24.7-11
			c-3.3-1.1-6.7-1.9-10.1-2.4c-3-0.2-5.6-0.3-8.5,1.2s-5.7,4.5-7.7,8.8c-2.2,4.7-3.6,9.8-4.3,14.9c-3.5-4.7-5.9-10.1-7-15.9
			c-1.4-6.8-0.4-13.8,2.6-20.1c3.4-6.9,9.9-12.7,16.9-15.8c6.5-2.9,13.5-4.6,20.7-5c13.5-0.8,24.9,1.4,35.6,3.4
			c10.6,2.1,20.7,4.6,30.4,7l14.3,3.5l13.6,3c4.4,1,8.7,1.5,12.7,2.1c3.6,0.6,7.2,0.8,10.9,0.7c2.4,0,4.8-0.2,7.2-0.7
			c1.2-0.2,2.4-0.6,3.5-1.1l1-1l1-1.3c0.5-0.8,1-1.6,1.5-2.5c0.8-1.7,1.3-3.6,1.3-5.5c0.2-4.2-1.8-10.1-5.8-15.8
			c-4.5-6.1-10.2-11.2-16.8-15.1c-7.2-4.3-15-7.3-23.1-9.1c-8.4-1.8-17.7-2.1-27.2-1.8c-19.1,0.8-39.1,4.5-59,9.2
			C997.1,402.2,977,408.4,956.1,411.5z"/>
		<path fill="#3D2216" d="M1031,887.5c-12.8-5.1-24.9-11.9-35.8-20.2c-10.1-8-19.4-16.9-27.9-26.6c-8-9.4-15.3-19.4-22-29.9
			c-6.5-10.2-12.3-20.9-17.3-31.9c7.8,8.9,16.3,17.3,25.3,25c8.8,7.6,18.1,14.5,27.9,20.8c9.4,5.9,19.4,11,29.7,15
			c9.6,3.5,19.6,5.7,29.8,6.5c11.8,1,20.6,11.3,19.7,23.2c-1,11.8-11.3,20.6-23.2,19.7c-2.1-0.2-4.1-0.6-6.1-1.4L1031,887.5z"/>
		<path fill="#3D2216" d="M928.6,898.4c-6.9-7.6-12.7-16.2-17.1-25.6c-3.8-8.4-6.9-17.2-9.1-26.2c-2-8.6-3.5-17.2-4.4-26
			c-0.9-8.5-1.3-17-1.1-25.6c3.3,7.7,7,15.2,11.3,22.4c4.1,7,8.6,13.8,13.5,20.2c4.7,6,10,11.6,15.7,16.7
			c5.1,4.3,10.8,7.8,16.9,10.3c11.3,4.5,16.8,17.3,12.4,28.6c-4.5,11.3-17.3,16.8-28.6,12.4c-3-1.2-5.7-3-7.9-5.4L928.6,898.4z"/>
		<path fill="#3D2216" d="M866.6,895c-5.1-6.2-9-13.3-11.5-21c-2-6.9-3-14.1-3-21.3c0.1-6.6,0.8-13.3,2.2-19.8
			c1.3-6.2,3.2-12.3,5.6-18.2c0.4,12,3,23.9,7.8,34.9c2.2,4.8,5.1,9.3,8.7,13.3c3.1,3.3,6.9,5.9,11,7.8c8.3,3.8,11.9,13.6,8.1,21.9
			c-3.8,8.3-13.6,11.9-21.9,8.1c-2.3-1-4.3-2.6-5.9-4.5L866.6,895z"/>
		<path fill="#3D2216" d="M415.1,673.6c-11.1,0.6-22.1,0.5-32.7,0.7c-10.2,0.1-20.4,0.7-30.6,1.8c-4.7,0.5-9.4,1.3-14.1,2.4
			c-2.3,0.5-4.5,1-6.6,1.6c-1.8,0.5-3.6,1.1-5.3,1.8c-6.9,2.8-13.2,7-18.6,12.2c-4.8,4.6-8.6,10.2-11,16.4c-2,5.6-2.6,11.5-2,17.3
			c1.8,14.5,7,24.3,16.4,32.2s23.4,13.4,38,14.6c3.6,0.3,7.2,0.3,10.7,0c3.8-0.4,7.8-0.9,11.9-1.7c9.1-2.1,18.2-4.6,27-7.7
			c19.2-6.3,40.3-14.3,62.8-18.3s46.2-4.3,67.4,2.8c-19.8,6.6-38.8,15.5-56.4,26.7c-17.2,10.6-33.4,22.7-52.5,34.3
			c-4.8,2.9-9.8,5.7-15,8.5s-10.9,5.2-16.7,7.5c-12.7,5-26.1,7.8-39.7,8.4c-14,0.5-27.9-1.4-41.2-5.8c-13.9-4.5-26.8-11.7-37.9-21.2
			c-11.6-10-20.7-22.6-26.6-36.7c-5.6-13.6-8.1-28.4-7.4-43.1c0.3-15.4,4.6-30.5,12.5-43.7c7.7-13.2,18.8-23.3,30.7-30.7
			c11.9-7.2,25.2-11.7,39-13.2c3.4-0.4,6.9-0.5,10.4-0.4c3.1,0.2,6.2,0.3,9.2,0.8c5.9,0.8,11.8,1.9,17.6,3.4
			c11,3,21.7,7.1,31.9,12.2C396.4,661.6,406,667.2,415.1,673.6z"/>
		<path fill="#3D2216" d="M513.9,411.5c-20.9-3.1-41-9.3-61-13.8c-19.9-4.7-39.9-8.4-59-9.2c-9.5-0.3-18.8,0.1-27.3,1.8
			c-8.1,1.8-15.9,4.9-23.1,9.1c-6.5,3.9-12.2,9-16.8,15.1c-4,5.7-6,11.6-5.8,15.8c0,1.9,0.5,3.8,1.3,5.5c0.4,0.9,0.9,1.7,1.5,2.5
			l1,1.3l1,1c1.1,0.5,2.3,0.9,3.5,1.1c2.4,0.5,4.8,0.7,7.2,0.7c3.6,0.1,7.3-0.2,10.9-0.7c4-0.6,8.3-1.1,12.7-2.1l13.6-3l14.3-3.5
			c9.7-2.4,19.8-4.9,30.4-7c10.6-1.9,22-4.1,35.6-3.4c7.1,0.4,14.1,2.1,20.7,5c6.9,3.1,13.5,8.9,16.9,15.8c3,6.2,3.9,13.2,2.6,20
			c-1.1,5.7-3.5,11.2-7,15.9c-0.7-5.1-2.1-10.2-4.2-14.9c-2-4.2-4.8-7.4-7.6-8.8s-5.5-1.4-8.5-1.2c-3.4,0.5-6.8,1.3-10.1,2.4
			c-7.1,2.5-15.7,6.7-24.7,11s-18.5,8.7-28.5,12.6c-5,2.1-10.1,3.9-15.4,5.7s-10.7,3.5-16.4,4.8c-11.4,2.7-23.5,4.8-38,3.9
			c-7.9-0.5-15.7-2.3-23.1-5.4c-8.5-3.5-16-9.1-21.8-16.3c-2.6-3.2-5-6.7-7-10.3c-2-3.7-3.7-7.6-5-11.6c-2.5-8.1-3.2-16.7-2.2-25.1
			c2-16.5,10.1-29.9,19.5-39.8c9.2-9.6,20.2-17,32.5-21.9c11.6-4.7,23.9-7.3,36.3-7.6c11.6-0.4,23.2,0.6,34.6,3.2
			c22,4.7,41.8,13,60.9,22.1c9.5,4.6,18.8,9.5,27.9,14.6S504.5,407,513.9,411.5z"/>
		<path fill="#3D2216" d="M429.2,846.2c10.2-0.8,20.2-3,29.8-6.5c10.4-4.1,20.3-9.1,29.7-15c9.8-6.3,19.1-13.2,27.9-20.8
			c9-7.7,17.5-16.1,25.3-25c-5,11-10.8,21.7-17.3,31.9c-6.6,10.5-13.9,20.4-22,29.9c-8.4,9.7-17.8,18.6-27.9,26.6
			c-11,8.4-23,15.2-35.9,20.3l-0.2,0.1c-11.1,4.2-23.5-1.3-27.7-12.4c-4.1-10.9,1.1-23.1,11.8-27.5
			C424.9,846.9,427,846.4,429.2,846.2z"/>
		<path fill="#3D2216" d="M515.7,864.6c6.1-2.5,11.9-6,16.9-10.3c5.7-5.1,11-10.6,15.7-16.7c5-6.4,9.5-13.2,13.5-20.2
			c4.2-7.2,8-14.7,11.3-22.4c0.3,17.4-1.6,34.7-5.6,51.6c-2.2,9-5.2,17.8-9.1,26.2c-4.4,9.3-10.2,17.9-17.1,25.6l-1.5,1.6
			c-8.2,8.9-22.2,9.5-31.1,1.3s-9.5-22.2-1.3-31.1l0,0C509.8,867.7,512.6,865.8,515.7,864.6z"/>
		<path fill="#3D2216" d="M582.7,870.9c4.1-1.8,7.9-4.5,11-7.8c3.5-4,6.4-8.5,8.6-13.3c4.8-11.1,7.4-22.9,7.8-34.9
			c2.4,5.9,4.3,12,5.6,18.2c1.4,6.5,2.2,13.1,2.2,19.8c0,7.2-1,14.4-3,21.3c-2.5,7.7-6.3,14.8-11.5,21l-1,1.2
			c-5.7,7.1-16.1,8.2-23.2,2.5c-7.1-5.7-8.2-16.1-2.5-23.2C578.4,873.5,580.4,872,582.7,870.9z"/>
	</g>
</g>
</svg>
